<svg width="1104" height="1104" viewBox="0 0 1104 1104" fill="none" xmlns="http://www.w3.org/2000/svg">
<circle cx="551.965" cy="551.597" r="551.462" fill="white"/>
<path fill-rule="evenodd" clip-rule="evenodd" d="M744.224 494.83C731.419 507.635 724.225 525.002 724.225 543.111C724.219 561.209 731.395 578.57 744.177 591.381C756.96 604.192 774.304 611.407 792.402 611.441H866.646C857.046 653.567 838.789 693.236 813.037 727.928L756.714 671.605C743.83 659.177 726.582 652.304 708.682 652.464C690.782 652.624 673.66 659.805 661.001 672.461C648.342 685.117 641.156 702.237 640.992 720.137C640.827 738.037 647.695 755.286 660.119 768.173L709.53 817.584C674.697 836.293 636.72 848.146 597.654 852.627L565.429 820.401L479.51 734.739C478.288 733.517 477.318 732.066 476.657 730.469C475.995 728.873 475.655 727.161 475.655 725.433C475.655 723.705 475.995 721.993 476.657 720.396C477.318 718.799 478.288 717.349 479.51 716.127L565.403 630.183L613.559 582.052C616.029 579.58 617.417 576.228 617.417 572.733C617.417 569.238 616.029 565.886 613.559 563.414L565.403 515.309L543.565 493.445C542.343 492.223 541.373 490.773 540.712 489.176C540.05 487.579 539.71 485.868 539.71 484.139C539.71 482.411 540.05 480.699 540.712 479.103C541.373 477.506 542.343 476.055 543.565 474.833L612.689 405.709C615.159 403.237 616.547 399.885 616.547 396.39C616.547 392.895 615.159 389.544 612.689 387.071L565.505 339.888L552.577 326.959C551.35 325.737 550.377 324.285 549.713 322.686C549.05 321.086 548.709 319.372 548.711 317.64V230.339C546.547 230.451 544.385 230.586 542.225 230.743V229.954C542.225 229.683 542.333 229.422 542.525 229.23C542.717 229.038 542.977 228.93 543.249 228.93H561.682C613.954 228.844 665.407 241.919 711.297 266.948L660.094 318.151C647.454 330.995 640.403 348.314 640.475 366.335C640.547 384.355 647.738 401.616 660.48 414.359C673.223 427.101 690.484 434.292 708.505 434.364C726.525 434.437 743.844 427.385 756.688 414.745L814.24 357.193C839.954 392.265 858.025 432.341 867.286 474.832H792.505C774.396 474.832 757.029 482.026 744.224 494.83Z" fill="#FF8B2C"/>
<path fill-rule="evenodd" clip-rule="evenodd" d="M500.209 235.299C441.319 247.718 386.774 276.979 343.568 320.186C284.907 378.847 251.951 458.408 251.951 541.368C251.951 624.327 284.907 703.888 343.568 762.55C391.943 810.925 454.532 841.819 521.518 851.166C518.719 850.151 516.162 848.525 514.043 846.383L400.501 732.867C399.278 731.645 398.309 730.194 397.647 728.597C396.986 727 396.645 725.289 396.645 723.561C396.645 721.832 396.986 720.121 397.647 718.524C398.309 716.927 399.278 715.476 400.501 714.254L534.55 580.18C537.02 577.708 538.407 574.356 538.407 570.861C538.407 567.366 537.02 564.014 534.55 561.542L464.555 491.573C462.093 489.102 460.711 485.756 460.711 482.267C460.711 478.779 462.093 475.432 464.555 472.961L533.679 403.837C536.149 401.365 537.537 398.013 537.537 394.518C537.537 391.024 536.149 387.672 533.679 385.199L496.506 348.052C494.033 345.581 492.642 342.229 492.64 338.733V247.105C492.668 244.083 493.734 241.162 495.659 238.831C496.905 237.323 498.462 236.121 500.209 235.299Z" fill="#5061FF"/>
<path d="M945.694 549.851C945.753 627.687 922.828 703.807 879.794 768.665C836.761 833.523 775.535 884.23 703.796 914.427C632.057 944.624 552.998 952.967 476.536 938.409C400.074 923.851 329.613 887.04 273.989 832.594C199.864 758.454 158.226 657.906 158.235 553.066C158.245 448.227 199.901 347.686 274.04 273.561C348.18 199.435 448.729 157.797 553.568 157.807C658.407 157.816 758.948 199.473 833.074 273.612C905.326 347.399 945.761 446.579 945.694 549.851V549.851ZM945.694 549.851C945.711 498.852 935.528 448.365 915.742 401.36C895.957 354.355 866.971 311.782 830.488 276.146C776.195 223.133 707.355 187.475 632.731 173.711C558.108 159.947 481.076 168.7 411.443 198.856C388.626 208.692 366.836 220.757 346.39 234.877C326.029 249.005 307.036 265.007 289.657 282.675C272.351 300.371 256.814 319.715 243.268 340.432C229.778 361.094 218.275 382.987 208.91 405.818C190.168 451.544 180.599 500.51 180.749 549.928C180.701 638.237 211.214 723.842 267.109 792.21C323.003 860.579 400.835 907.499 487.391 925.005C573.948 942.511 663.895 929.525 741.965 888.25C820.035 846.976 881.416 779.957 915.689 698.57C935.351 651.446 945.547 600.913 945.694 549.851V549.851Z" fill="#B7B7B7"/>
<path d="M167.946 590.637C200.438 590.637 226.778 564.297 226.778 531.805C226.778 499.313 200.438 472.973 167.946 472.973C135.454 472.973 109.114 499.313 109.114 531.805C109.114 564.297 135.454 590.637 167.946 590.637Z" fill="#515151"/>
</svg>
